<?xml version="1.0" encoding="UTF-8"?>
<svg xmlns="http://www.w3.org/2000/svg"
     viewBox="0 0 1000 1500"
     width="1000" height="1500"
     preserveAspectRatio="xMidYMid meet">
  <title>Legio IX Polonia Victrix — The Lost Legion</title>
  <desc>Heraldic poster for the stag of Centurion Julianus, Londinium MMXXV · II Maius</desc>

  <defs>
    <!-- Aged red parchment background -->
    <radialGradient id="bg" cx="50%" cy="42%" r="78%">
      <stop offset="0%"  stop-color="#9c2424"/>
      <stop offset="55%" stop-color="#7e1818"/>
      <stop offset="100%" stop-color="#3e0a0a"/>
    </radialGradient>

    <!-- Subtle parchment grain -->
    <filter id="grain" x="0" y="0" width="100%" height="100%">
      <feTurbulence type="fractalNoise" baseFrequency="1.4" numOctaves="2" seed="11" result="t"/>
      <feColorMatrix in="t" values="0 0 0 0 0   0 0 0 0 0   0 0 0 0 0   0 0 0 0.18 0"/>
    </filter>

    <!-- Gold gradient (used for eagle, text, banners) -->
    <linearGradient id="gold" x1="0" y1="0" x2="0" y2="1">
      <stop offset="0%"  stop-color="#f7e1a0"/>
      <stop offset="35%" stop-color="#dfb55b"/>
      <stop offset="65%" stop-color="#a87f29"/>
      <stop offset="100%" stop-color="#5a3d0e"/>
    </linearGradient>
    <linearGradient id="gold-flat" x1="0" y1="0" x2="0" y2="1">
      <stop offset="0%"  stop-color="#e9c573"/>
      <stop offset="100%" stop-color="#9d7626"/>
    </linearGradient>
    <linearGradient id="gold-soft" x1="0" y1="0" x2="0" y2="1">
      <stop offset="0%"  stop-color="#f0d289"/>
      <stop offset="100%" stop-color="#b48634"/>
    </linearGradient>

    <!-- Greek-key (meander) tile, 80×40 -->
    <pattern id="meander" x="0" y="0" width="80" height="40" patternUnits="userSpaceOnUse">
      <path d="M 0,38 V 6 H 32 V 14 H 8 V 30 H 26 V 22 H 16 V 14 H 26
               M 40,2 V 34 H 72 V 26 H 48 V 10 H 66 V 18 H 56 V 26 H 66"
            stroke="#d8b25a" stroke-width="3" fill="none"
            stroke-linecap="square" stroke-linejoin="miter"/>
    </pattern>

    <!-- Wreath leaf used by the laurel -->
    <symbol id="leaf" viewBox="0 0 30 10" overflow="visible">
      <path d="M 1,5 Q 8,0 17,1 Q 26,3 29,5 Q 26,7 17,9 Q 8,10 1,5 Z"
            fill="#3a5a25" stroke="#1c2d11" stroke-width="0.6"/>
      <path d="M 4,5 Q 14,4 27,5" stroke="#1c2d11" stroke-width="0.5" fill="none"/>
    </symbol>

    <!-- Single Roman legionary helmet -->
    <symbol id="legionary" viewBox="0 0 60 110" overflow="visible">
      <!-- crest -->
      <path d="M 30,2 C 24,8 24,18 30,22 C 36,18 36,8 30,2 Z" fill="#8b1a1a"/>
      <!-- helmet -->
      <ellipse cx="30" cy="28" rx="14" ry="12" fill="#3a3027"/>
      <ellipse cx="30" cy="26" rx="12" ry="9" fill="#52453a"/>
      <!-- face shadow -->
      <rect x="22" y="32" width="16" height="4" fill="#1c1611"/>
      <!-- body / armor -->
      <path d="M 14,40 L 46,40 L 50,82 L 10,82 Z" fill="#574436"/>
      <path d="M 16,46 L 44,46 M 16,54 L 44,54 M 16,62 L 44,62 M 16,70 L 44,70"
            stroke="#1c1611" stroke-width="1" opacity="0.7"/>
      <!-- shield (round) -->
      <ellipse cx="14" cy="68" rx="10" ry="14" fill="#7a1818"/>
      <ellipse cx="14" cy="68" rx="10" ry="14" fill="none" stroke="#d8b25a" stroke-width="1.2"/>
      <circle cx="14" cy="68" r="3" fill="#d8b25a"/>
      <!-- legs -->
      <rect x="18" y="82" width="9" height="22" fill="#3a3027"/>
      <rect x="32" y="82" width="9" height="22" fill="#3a3027"/>
    </symbol>

    <!-- Banner ornament for the bottom title strip -->
    <linearGradient id="banner-grad" x1="0" y1="0" x2="0" y2="1">
      <stop offset="0%" stop-color="#e7c674"/>
      <stop offset="100%" stop-color="#8d6520"/>
    </linearGradient>
  </defs>

  <!-- BACKGROUND -->
  <rect width="1000" height="1500" fill="url(#bg)"/>
  <rect width="1000" height="1500" fill="#000" filter="url(#grain)" style="mix-blend-mode:multiply"/>

  <!-- BORDER FRAME -->
  <!-- Outer thin gold rule -->
  <rect x="20" y="20" width="960" height="1460" fill="none" stroke="#d8b25a" stroke-width="2"/>
  <!-- Greek key band -->
  <rect x="32" y="32" width="936" height="40" fill="url(#meander)"/>
  <rect x="32" y="1428" width="936" height="40" fill="url(#meander)"/>
  <rect x="32" y="32" width="40" height="1436" fill="url(#meander)"/>
  <rect x="928" y="32" width="40" height="1436" fill="url(#meander)"/>
  <!-- Inner thin gold rule -->
  <rect x="76" y="76" width="848" height="1348" fill="none" stroke="#d8b25a" stroke-width="2"/>
  <!-- Decorative corner roundels -->
  <g fill="#d8b25a">
    <circle cx="52" cy="52" r="9"/>
    <circle cx="948" cy="52" r="9"/>
    <circle cx="52" cy="1448" r="9"/>
    <circle cx="948" cy="1448" r="9"/>
  </g>

  <!-- TITLE -->
  <g text-anchor="middle"
     font-family="'Cinzel', 'Trajan Pro', 'Times New Roman', serif"
     font-weight="900">
    <!-- LEGIO IX -->
    <text x="500" y="195" font-size="130" letter-spacing="6" fill="url(#gold)" stroke="#3a2208" stroke-width="1.5">LEGIO IX</text>
    <!-- POLONIA VICTRIX -->
    <text x="500" y="305" font-size="86" letter-spacing="3.5" fill="url(#gold)" stroke="#3a2208" stroke-width="1.2">POLONIA VICTRIX</text>
    <!-- subtitle rule -->
    <line x1="220" y1="345" x2="780" y2="345" stroke="#d8b25a" stroke-width="1.2"/>
    <text x="500" y="378" font-size="30" letter-spacing="14" fill="#e9c573" font-weight="500">THE LOST LEGION</text>
    <line x1="220" y1="395" x2="780" y2="395" stroke="#d8b25a" stroke-width="1.2"/>
  </g>

  <!-- HERALDIC EAGLE (front-facing, displayed wings) -->
  <g transform="translate(500 700)">

    <!-- LEFT WING -->
    <g transform="scale(-1 1)">
      <!-- main wing shape -->
      <path d="M 0,-30
               C 50,-100 180,-150 320,-130
               C 350,-115 360,-85 350,-60
               C 320,-40 240,-30 160,-15
               C 120,0 60,15 0,20
               Z"
            fill="url(#gold)" stroke="#3a2208" stroke-width="2"/>
      <!-- feather divisions -->
      <g stroke="#7a5018" stroke-width="2.5" fill="none" stroke-linecap="round">
        <path d="M 30,-50 Q 80,-95 150,-110"/>
        <path d="M 60,-40 Q 120,-90 200,-110"/>
        <path d="M 90,-30 Q 160,-80 240,-105"/>
        <path d="M 130,-22 Q 200,-65 280,-95"/>
        <path d="M 170,-15 Q 230,-50 320,-80"/>
        <path d="M 200,-5  Q 260,-30 340,-55"/>
      </g>
      <!-- primary feather tips (scalloped) -->
      <g fill="#a87f29" stroke="#3a2208" stroke-width="1">
        <path d="M 320,-130 Q 340,-110 320,-90 Q 300,-110 320,-130 Z"/>
        <path d="M 285,-115 Q 305,-95 285,-75 Q 265,-95 285,-115 Z"/>
        <path d="M 250,-100 Q 270,-80 250,-60 Q 230,-80 250,-100 Z"/>
        <path d="M 215,-85  Q 235,-65 215,-45 Q 195,-65 215,-85 Z"/>
        <path d="M 180,-70  Q 200,-50 180,-30 Q 160,-50 180,-70 Z"/>
      </g>
    </g>

    <!-- RIGHT WING -->
    <g>
      <path d="M 0,-30
               C 50,-100 180,-150 320,-130
               C 350,-115 360,-85 350,-60
               C 320,-40 240,-30 160,-15
               C 120,0 60,15 0,20
               Z"
            fill="url(#gold)" stroke="#3a2208" stroke-width="2"/>
      <g stroke="#7a5018" stroke-width="2.5" fill="none" stroke-linecap="round">
        <path d="M 30,-50 Q 80,-95 150,-110"/>
        <path d="M 60,-40 Q 120,-90 200,-110"/>
        <path d="M 90,-30 Q 160,-80 240,-105"/>
        <path d="M 130,-22 Q 200,-65 280,-95"/>
        <path d="M 170,-15 Q 230,-50 320,-80"/>
        <path d="M 200,-5  Q 260,-30 340,-55"/>
      </g>
      <g fill="#a87f29" stroke="#3a2208" stroke-width="1">
        <path d="M 320,-130 Q 340,-110 320,-90 Q 300,-110 320,-130 Z"/>
        <path d="M 285,-115 Q 305,-95 285,-75 Q 265,-95 285,-115 Z"/>
        <path d="M 250,-100 Q 270,-80 250,-60 Q 230,-80 250,-100 Z"/>
        <path d="M 215,-85  Q 235,-65 215,-45 Q 195,-65 215,-85 Z"/>
        <path d="M 180,-70  Q 200,-50 180,-30 Q 160,-50 180,-70 Z"/>
      </g>
    </g>

    <!-- BODY (chest with feather scales) -->
    <path d="M -55,-20
             C -55,-65 -25,-90 0,-90
             C 25,-90 55,-65 55,-20
             C 55,40 30,90 0,100
             C -30,90 -55,40 -55,-20 Z"
          fill="url(#gold)" stroke="#3a2208" stroke-width="2"/>
    <!-- chest scales -->
    <g fill="none" stroke="#7a5018" stroke-width="1.8" stroke-linecap="round">
      <path d="M -36,-30 Q -18,-40 0,-30 Q 18,-40 36,-30"/>
      <path d="M -42,-12 Q -21,-22 0,-12 Q 21,-22 42,-12"/>
      <path d="M -45,4   Q -22,-6  0,4   Q 22,-6  45,4"/>
      <path d="M -47,22  Q -23,12  0,22  Q 23,12  47,22"/>
      <path d="M -45,40  Q -22,30  0,40  Q 22,30  45,40"/>
      <path d="M -40,58  Q -20,48  0,58  Q 20,48  40,58"/>
      <path d="M -32,76  Q -16,66  0,76  Q 16,66  32,76"/>
    </g>

    <!-- HEAD -->
    <g transform="translate(0 -100)">
      <!-- skull -->
      <path d="M -38,10
               C -42,-20 -22,-40 0,-40
               C 22,-40 42,-20 38,10
               C 30,28 12,30 0,30
               C -12,30 -30,28 -38,10 Z"
            fill="url(#gold)" stroke="#3a2208" stroke-width="2"/>
      <!-- eye -->
      <circle cx="-15" cy="-10" r="6" fill="#1c1611"/>
      <circle cx="-13" cy="-12" r="2" fill="#f7e1a0"/>
      <!-- brow -->
      <path d="M -28,-18 Q -18,-26 -6,-22" stroke="#3a2208" stroke-width="2.5" fill="none" stroke-linecap="round"/>
      <!-- beak -->
      <path d="M -38,8
               C -55,8 -68,18 -68,32
               C -68,38 -56,42 -45,38
               C -38,32 -38,18 -38,8 Z"
            fill="#d8b25a" stroke="#3a2208" stroke-width="2"/>
      <path d="M -68,32 Q -56,28 -38,24" stroke="#3a2208" stroke-width="1.4" fill="none"/>
      <!-- tongue -->
      <path d="M -55,30 Q -50,34 -45,32" stroke="#7a1818" stroke-width="1.5" fill="none"/>
    </g>

    <!-- TAIL FEATHERS -->
    <g transform="translate(0 95)" stroke="#3a2208" stroke-width="2" fill="url(#gold)">
      <path d="M 0,0 L -30,80 L -10,75 L 0,90 L 10,75 L 30,80 Z"/>
      <line x1="-15" y1="40" x2="-12" y2="78" stroke="#7a5018" stroke-width="1.5"/>
      <line x1="0"   y1="40" x2="0"   y2="86" stroke="#7a5018" stroke-width="1.5"/>
      <line x1="15"  y1="40" x2="12"  y2="78" stroke="#7a5018" stroke-width="1.5"/>
    </g>

    <!-- TALONS gripping perch -->
    <g transform="translate(0 110)">
      <rect x="-90" y="0" width="180" height="10" fill="#5a3d0e"/>
      <g fill="#d8b25a" stroke="#3a2208" stroke-width="1.5">
        <path d="M -36,-2 L -42,16 L -34,12 L -32,-2 Z"/>
        <path d="M -22,-2 L -28,18 L -20,14 L -18,-2 Z"/>
        <path d="M  -8,-2 L -14,20 L  -6,16 L  -4,-2 Z"/>
        <path d="M   8,-2 L  14,20 L   6,16 L   4,-2 Z"/>
        <path d="M  22,-2 L  28,18 L  20,14 L  18,-2 Z"/>
        <path d="M  36,-2 L  42,16 L  34,12 L  32,-2 Z"/>
      </g>
    </g>
  </g>

  <!-- LAUREL WREATH FRAMING THE BANNER -->
  <g transform="translate(500 905)">
    <!-- left half -->
    <g>
      <use href="#leaf" x="-260" y="-12" width="46" height="14" transform="rotate(-30 -260 -12)"/>
      <use href="#leaf" x="-228" y="-4"  width="48" height="14" transform="rotate(-22 -228 -4)"/>
      <use href="#leaf" x="-198" y="2"   width="50" height="14" transform="rotate(-12 -198 2)"/>
      <use href="#leaf" x="-168" y="6"   width="52" height="14" transform="rotate(-4  -168 6)"/>
      <use href="#leaf" x="-138" y="8"   width="50" height="14" transform="rotate(2   -138 8)"/>
    </g>
    <!-- right half -->
    <g transform="scale(-1 1)">
      <use href="#leaf" x="-260" y="-12" width="46" height="14" transform="rotate(-30 -260 -12)"/>
      <use href="#leaf" x="-228" y="-4"  width="48" height="14" transform="rotate(-22 -228 -4)"/>
      <use href="#leaf" x="-198" y="2"   width="50" height="14" transform="rotate(-12 -198 2)"/>
      <use href="#leaf" x="-168" y="6"   width="52" height="14" transform="rotate(-4  -168 6)"/>
      <use href="#leaf" x="-138" y="8"   width="50" height="14" transform="rotate(2   -138 8)"/>
    </g>
  </g>

  <!-- BANNER · THE GOLDEN EAGLE OF DESTINY -->
  <g transform="translate(500 905)">
    <!-- ribbon body -->
    <path d="M -270,-26 L -250,-26 L -240,-2 L -250,22 L -270,22 L -260,-2 Z"
          fill="#7a1818" stroke="#3a2208" stroke-width="1.5"/>
    <path d="M  270,-26 L  250,-26 L  240,-2 L  250,22 L  270,22 L  260,-2 Z"
          fill="#7a1818" stroke="#3a2208" stroke-width="1.5"/>
    <path d="M -250,-30 L 250,-30 L 268,-2 L 250,26 L -250,26 L -268,-2 Z"
          fill="url(#banner-grad)" stroke="#3a2208" stroke-width="2"/>
    <!-- inner border -->
    <path d="M -240,-22 L 240,-22 L 254,-2 L 240,18 L -240,18 L -254,-2 Z"
          fill="none" stroke="#5a3d0e" stroke-width="1.4"/>
    <text x="0" y="6" text-anchor="middle"
          font-family="'Cinzel', 'Trajan Pro', serif" font-weight="900"
          font-size="28" letter-spacing="3.5" fill="#2b1808">THE GOLDEN EAGLE OF DESTINY</text>
  </g>

  <!-- LOWER SCENE — cityscape silhouette + cohort + centurion -->
  <g transform="translate(0 970)">

    <!-- Sky tone -->
    <rect x="80" y="0" width="840" height="380" fill="#3e0a0a" opacity="0.55"/>

    <!-- Distant Londinium / London skyline silhouette -->
    <g fill="#1f0606" opacity="0.85" stroke="#0d0202" stroke-width="0.8">
      <!-- ground -->
      <rect x="80" y="320" width="840" height="60"/>
      <!-- St Paul's-style dome -->
      <path d="M 130,320 V 230 Q 130,200 160,200 Q 190,200 190,230 V 320 Z"/>
      <ellipse cx="160" cy="200" rx="30" ry="22" fill="#1f0606"/>
      <line x1="160" y1="178" x2="160" y2="160" stroke="#1f0606" stroke-width="2.5"/>
      <circle cx="160" cy="158" r="4"/>
      <!-- aqueduct arches -->
      <g>
        <rect x="220" y="270" width="8" height="50"/>
        <rect x="248" y="270" width="8" height="50"/>
        <rect x="276" y="270" width="8" height="50"/>
        <rect x="304" y="270" width="8" height="50"/>
        <path d="M 220,270 Q 224,254 228,270 Z"/>
        <path d="M 248,270 Q 252,254 256,270 Z"/>
        <path d="M 276,270 Q 280,254 284,270 Z"/>
        <path d="M 220,260 H 312" stroke="#1f0606" stroke-width="3" fill="none"/>
      </g>
      <!-- amphitheatre arc -->
      <path d="M 350,320 L 350,250 Q 460,200 570,250 L 570,320 Z"/>
      <g stroke="#3e0a0a" stroke-width="1.2" fill="none">
        <path d="M 360,260 Q 460,215 560,260"/>
        <path d="M 360,280 Q 460,238 560,280"/>
        <path d="M 360,300 Q 460,260 560,300"/>
      </g>
      <g>
        <rect x="365" y="240" width="6" height="20"/>
        <rect x="395" y="232" width="6" height="22"/>
        <rect x="430" y="226" width="6" height="20"/>
        <rect x="465" y="225" width="6" height="20"/>
        <rect x="500" y="226" width="6" height="20"/>
        <rect x="535" y="232" width="6" height="22"/>
        <rect x="565" y="240" width="6" height="20"/>
      </g>
      <!-- Big Ben -->
      <rect x="640" y="200" width="34" height="120"/>
      <path d="M 640,200 L 657,170 L 674,200 Z"/>
      <circle cx="657" cy="220" r="9" fill="#3e0a0a"/>
      <line x1="657" y1="220" x2="657" y2="214" stroke="#1f0606" stroke-width="1.6"/>
      <line x1="657" y1="220" x2="662" y2="220" stroke="#1f0606" stroke-width="1.6"/>
      <!-- London Eye-ish wheel -->
      <circle cx="760" cy="260" r="46" fill="none" stroke="#1f0606" stroke-width="3"/>
      <circle cx="760" cy="260" r="3"/>
      <g stroke="#1f0606" stroke-width="1.2">
        <line x1="760" y1="214" x2="760" y2="306"/>
        <line x1="714" y1="260" x2="806" y2="260"/>
        <line x1="727" y1="227" x2="793" y2="293"/>
        <line x1="727" y1="293" x2="793" y2="227"/>
      </g>
      <line x1="760" y1="306" x2="760" y2="320" stroke="#1f0606" stroke-width="3"/>
      <!-- Roman columns silhouette right -->
      <g>
        <rect x="838" y="220" width="10" height="100"/>
        <rect x="858" y="220" width="10" height="100"/>
        <rect x="878" y="220" width="10" height="100"/>
        <rect x="833" y="216" width="60" height="6"/>
        <rect x="833" y="320" width="60" height="6"/>
      </g>
    </g>

    <!-- CENTURION (silhouette, left foreground) -->
    <g transform="translate(180 110)">
      <!-- crest -->
      <path d="M -10,-20 C -16,-10 -16,10 -8,18 C 4,12 6,-4 0,-18 Z" fill="#7a1818"/>
      <path d="M -8,-20 L -2,-32 L 6,-22 L 2,-12 Z" fill="#5a1010"/>
      <!-- helmet -->
      <ellipse cx="0" cy="14" rx="22" ry="20" fill="#3a3027"/>
      <ellipse cx="0" cy="10" rx="18" ry="14" fill="#52453a"/>
      <!-- cheek guard -->
      <path d="M -22,16 Q -22,32 -10,38 L -10,18 Z" fill="#3a3027"/>
      <path d="M  22,16 Q  22,32  10,38 L  10,18 Z" fill="#3a3027"/>
      <!-- face shadow strip -->
      <rect x="-12" y="22" width="24" height="6" fill="#1c1611"/>
      <!-- cloak (crimson) -->
      <path d="M -54,46 L -10,40 L -10,180 L -50,200 Z" fill="#7a1818" stroke="#3a0a0a" stroke-width="1.5"/>
      <!-- torso / lorica -->
      <path d="M -32,42 L 32,42 L 38,140 L -38,140 Z" fill="#574436" stroke="#1c1611" stroke-width="1.5"/>
      <g stroke="#1c1611" stroke-width="1.5" fill="none">
        <path d="M -32,58 L 32,58"/>
        <path d="M -34,72 L 34,72"/>
        <path d="M -36,86 L 36,86"/>
        <path d="M -36,100 L 36,100"/>
        <path d="M -37,114 L 37,114"/>
        <path d="M -38,128 L 38,128"/>
      </g>
      <!-- gold medallion -->
      <circle cx="0" cy="80" r="9" fill="url(#gold-soft)" stroke="#3a2208" stroke-width="1.5"/>
      <!-- skirt -->
      <g fill="#3a3027" stroke="#1c1611" stroke-width="1">
        <rect x="-38" y="140" width="14" height="38"/>
        <rect x="-21" y="140" width="14" height="38"/>
        <rect x="-4"  y="140" width="14" height="38"/>
        <rect x="13"  y="140" width="14" height="38"/>
      </g>
      <!-- right arm holding spear -->
      <rect x="38" y="60" width="14" height="80" fill="#574436" stroke="#1c1611" stroke-width="1"/>
      <!-- hand -->
      <ellipse cx="48" cy="148" rx="9" ry="7" fill="#c89066"/>
      <!-- spear -->
      <line x1="58" y1="-30" x2="58" y2="220" stroke="#3a2208" stroke-width="3.5"/>
      <path d="M 58,-32 L 50,-50 L 58,-66 L 66,-50 Z" fill="url(#gold-flat)" stroke="#3a2208" stroke-width="1.5"/>
    </g>

    <!-- VEXILLUM banner held by signifer -->
    <g transform="translate(420 90)">
      <line x1="0" y1="-30" x2="0" y2="240" stroke="#3a2208" stroke-width="3"/>
      <path d="M 0,-32 L -8,-50 L 0,-64 L 8,-50 Z" fill="url(#gold-flat)" stroke="#3a2208" stroke-width="1.2"/>
      <!-- crossbar -->
      <rect x="-44" y="-12" width="88" height="6" fill="url(#gold-flat)" stroke="#3a2208" stroke-width="1"/>
      <!-- tassels -->
      <line x1="-40" y1="-6" x2="-40" y2="6" stroke="#dfb55b" stroke-width="2"/>
      <line x1="-20" y1="-6" x2="-20" y2="6" stroke="#dfb55b" stroke-width="2"/>
      <line x1="0"   y1="-6" x2="0"   y2="6" stroke="#dfb55b" stroke-width="2"/>
      <line x1="20"  y1="-6" x2="20"  y2="6" stroke="#dfb55b" stroke-width="2"/>
      <line x1="40"  y1="-6" x2="40"  y2="6" stroke="#dfb55b" stroke-width="2"/>
      <!-- banner cloth -->
      <path d="M -46,0 L 46,0 L 46,118 L 30,140 L 0,128 L -30,140 L -46,118 Z"
            fill="#7a1818" stroke="#3a0a0a" stroke-width="2"/>
      <text x="0" y="44" text-anchor="middle"
            font-family="'Cinzel', 'Trajan Pro', serif" font-weight="900"
            font-size="28" letter-spacing="3" fill="url(#gold-soft)">IX</text>
      <text x="0" y="76" text-anchor="middle"
            font-family="'Cinzel', 'Trajan Pro', serif" font-weight="700"
            font-size="11" letter-spacing="2" fill="url(#gold-soft)">POLONIA</text>
      <text x="0" y="92" text-anchor="middle"
            font-family="'Cinzel', 'Trajan Pro', serif" font-weight="700"
            font-size="11" letter-spacing="2" fill="url(#gold-soft)">VICTRIX</text>
      <!-- gold edges -->
      <path d="M -46,0 L 46,0" stroke="url(#gold-flat)" stroke-width="3"/>
      <path d="M -46,118 L -30,140 L 0,128 L 30,140 L 46,118" stroke="url(#gold-flat)" stroke-width="2" fill="none"/>
    </g>

    <!-- MARCHING COHORT (legionaries) -->
    <g transform="translate(540 200)">
      <use href="#legionary" x="0"    y="0"  width="60" height="110"/>
      <use href="#legionary" x="55"   y="-4" width="56" height="104"/>
      <use href="#legionary" x="105"  y="-2" width="58" height="108"/>
      <use href="#legionary" x="158"  y="0"  width="60" height="110"/>
      <use href="#legionary" x="212"  y="-3" width="56" height="106"/>
      <use href="#legionary" x="262"  y="-1" width="58" height="108"/>
      <use href="#legionary" x="316"  y="0"  width="56" height="106"/>
    </g>

    <!-- Foreground ground line -->
    <rect x="80" y="378" width="840" height="2" fill="#d8b25a" opacity="0.6"/>
  </g>

  <!-- FOOTER PLATE -->
  <g transform="translate(500 1392)">
    <rect x="-260" y="-30" width="520" height="60" fill="#3a0a0a" stroke="#d8b25a" stroke-width="1.5"/>
    <text x="0" y="10" text-anchor="middle"
          font-family="'Cinzel', 'Trajan Pro', serif" font-weight="700"
          font-size="32" letter-spacing="14" fill="url(#gold-flat)">LONDINIUM · MMXXV · II MAIUS</text>
  </g>
</svg>
